<svg width="29" height="14" viewBox="0 0 29 14" fill="none" xmlns="http://www.w3.org/2000/svg">
<path d="M3.97598 8.14703H4.82471C12.3111 8.14703 19.7991 8.14703 27.2854 8.14703C27.5234 8.14703 27.7645 8.16544 27.9993 8.13532C28.6101 8.06003 28.9813 7.66849 28.9988 7.03935C29.0162 6.40686 28.6545 5.99525 28.0549 5.88983C27.7709 5.83964 27.4742 5.85972 27.1839 5.85972C19.7229 5.85972 12.2635 5.85972 4.80251 5.85972C4.52329 5.85972 4.24408 5.85972 3.96487 5.85972C3.91727 5.77605 3.8681 5.69406 3.8205 5.6104C4.80885 4.62152 5.7972 3.63431 6.78396 2.64207C6.99496 2.43125 7.20754 2.22042 7.39791 1.98951C7.84687 1.44571 7.85798 0.773065 7.40267 0.346389C6.88549 -0.138851 6.33024 -0.105386 5.8432 0.38822C5.02302 1.21815 4.23139 2.07819 3.42707 2.92653C2.45458 3.95222 1.47575 4.97122 0.511202 6.00361C-0.150341 6.71139 -0.174135 7.26189 0.469955 7.94792C2.2182 9.81191 3.97915 11.6625 5.74643 13.5064C6.33976 14.1255 6.92991 14.154 7.41853 13.6403C7.88653 13.1467 7.85163 12.4841 7.27734 11.8784C6.15732 10.6971 5.01985 9.53582 3.88872 8.36456C3.91886 8.29261 3.949 8.21898 3.97915 8.14703H3.97598Z" fill="#23458B"/>
</svg>
