<svg width="162" height="37" viewBox="0 0 162 37" fill="none" xmlns="http://www.w3.org/2000/svg">
<path d="M3.91157 1.51108H0.626343V21.0488H13.7538V19.7821H3.91157V1.51108Z" fill="white"/>
<path d="M41.5787 13.9695C41.5845 14.7721 41.4422 15.5687 41.1586 16.3194C40.6129 17.7809 39.4843 18.9496 38.0428 19.5465C36.426 20.1842 34.6273 20.1842 33.0105 19.5465C31.5614 18.9509 30.4231 17.7831 29.865 16.3194C29.5768 15.5697 29.4319 14.7727 29.4374 13.9695V1.28296H26.1519V13.8814C26.1457 14.8657 26.3281 15.8419 26.6897 16.7577C27.0422 17.648 27.5853 18.4506 28.2811 19.1085C29.0344 19.8073 29.9214 20.3461 30.8888 20.6924C32.0353 21.0987 33.2455 21.2958 34.4619 21.2743C35.782 21.304 37.0976 21.1072 38.3512 20.6924C39.3391 20.3598 40.2458 19.8223 41.0118 19.1154C41.6926 18.4702 42.2141 17.6761 42.5362 16.7952C42.8642 15.8883 43.0287 14.9304 43.0222 13.9659V1.28328H41.5783V13.9699L41.5787 13.9695Z" fill="white"/>
<path d="M94.8879 1.29013L85.4725 21.2697H87.1223L90.2016 14.7574H98.5854L101.557 21.2697H104.903L95.7081 1.29013H94.8879ZM90.7741 13.4908L94.4287 5.75485L97.976 13.4908H90.7741Z" fill="white"/>
<path d="M128.812 10.8478C129.371 10.5616 129.881 10.1889 130.323 9.74341C130.732 9.32762 131.062 8.84003 131.295 8.30544C131.528 7.76627 131.646 7.18436 131.641 6.5969C131.648 5.89129 131.494 5.19319 131.192 4.55579C130.881 3.9197 130.424 3.36683 129.858 2.94223C129.194 2.45463 128.444 2.09693 127.648 1.88773C126.644 1.62207 125.608 1.49576 124.569 1.51208H117.791V21.0495H121.077V11.8707H123.378L130.171 21.0495H133.987L126.871 11.5756C127.545 11.4115 128.196 11.167 128.812 10.8478ZM125.018 10.591C124.357 10.793 123.669 10.8922 122.977 10.8854H121.077V2.73629H123.964C124.53 2.73041 125.092 2.83061 125.622 3.03165C126.108 3.21572 126.554 3.49314 126.934 3.84855C127.305 4.20266 127.597 4.63216 127.788 5.10833C127.994 5.62367 128.097 6.17457 128.09 6.7294C128.114 7.91183 127.575 9.03519 126.639 9.75712C126.153 10.1308 125.604 10.4134 125.018 10.5913V10.591Z" fill="white"/>
<path d="M160.685 2.77869V1.51108H147.1V21.0488H160.685V19.7821H150.386V11.0303H157.282V9.76264H150.386V2.77869H160.685Z" fill="white"/>
<path d="M67.1388 11.0476L75.755 0L64.7074 8.61612L53.6599 0L62.2763 11.0476L53.6599 22.0948L64.7074 13.4787L75.755 22.0948L67.1388 11.0476Z" fill="#C68347"/>
<path d="M65.7312 12.0714L74.0128 11.0476L65.7312 10.0234L64.7074 1.74216L63.6836 10.0234L55.402 11.0476L63.6836 12.0714L64.7074 20.3526L65.7312 12.0714Z" fill="#C68347"/>
<path d="M0 36.7549V30.8865C0 30.8264 0.0280712 30.7974 0.0842065 30.7974H2.37237C3.07439 30.7974 3.60898 30.9397 3.97712 31.2253C4.34494 31.5099 4.52966 31.9152 4.52966 32.4407C4.52966 32.7439 4.44351 33.0154 4.27021 33.2533C4.09788 33.4929 3.83874 33.6531 3.49312 33.7344C3.96505 33.813 4.31328 33.9814 4.53782 34.2419C4.76236 34.5013 4.87496 34.8075 4.87496 35.1577C4.87496 35.6968 4.69252 36.1126 4.32732 36.4028C3.96211 36.6939 3.42556 36.8391 2.71799 36.8391H0.0842065C0.0280712 36.8391 0 36.8111 0 36.7549ZM0.775124 33.4723H2.45658C2.8554 33.4723 3.17099 33.3852 3.40402 33.2092C3.63704 33.0343 3.75421 32.7768 3.75421 32.4387C3.75421 32.1006 3.63346 31.8434 3.39195 31.6672C3.15043 31.4922 2.81069 31.4041 2.37237 31.4041H0.775124V33.4723ZM4.09984 35.1577C4.09984 34.4397 3.63933 34.079 2.71799 34.079H0.775453V36.236H2.71799C3.63933 36.236 4.09984 35.8776 4.09984 35.1577Z" fill="white"/>
<path d="M21.3555 30.7977C21.4136 30.7977 21.4437 30.8193 21.4437 30.8604C21.4437 30.8725 21.4381 30.8809 21.4267 30.8865L19.0674 34.813V36.7549C19.0674 36.8111 19.0393 36.8391 18.9832 36.8391H18.3804C18.3223 36.8391 18.2922 36.8111 18.2922 36.7549V34.813L15.9365 30.8865C15.931 30.8809 15.929 30.8725 15.929 30.8604V30.8359C15.946 30.8098 15.9701 30.7974 16.0038 30.7974H16.6366C16.7113 30.7974 16.7694 30.8264 16.8089 30.8865L18.6796 33.9994L20.554 30.8865C20.5931 30.8264 20.6512 30.7974 20.7273 30.7974H21.3555V30.7977Z" fill="white"/>
<path d="M45.7744 36.7549V30.8865C45.7744 30.8304 45.8025 30.8003 45.8586 30.7974H47.8436C48.7395 30.7974 49.4594 31.066 50.0045 31.6045C50.5495 32.142 50.8227 32.8806 50.8227 33.8186C50.8227 34.7566 50.5502 35.4945 50.0071 36.032C49.463 36.5702 48.7421 36.8391 47.8436 36.8391H45.8586C45.8025 36.8391 45.7744 36.8111 45.7744 36.7549ZM46.5495 36.2363H47.8433C48.4976 36.2363 49.0286 36.0314 49.4359 35.6195C49.8432 35.2086 50.0472 34.6084 50.0472 33.8209C50.0472 33.0333 49.8442 32.4335 49.4379 32.0213C49.0325 31.6104 48.5006 31.4044 47.8436 31.4044H46.5499V36.2363H46.5495Z" fill="white"/>
<path d="M62.4694 36.7549V30.8865C62.4694 30.8264 62.4975 30.7974 62.5536 30.7974H63.1603C63.2165 30.7974 63.2445 30.8264 63.2445 30.8865V36.7549C63.2445 36.8111 63.2165 36.8391 63.1603 36.8391H62.5536C62.4975 36.8391 62.4694 36.8111 62.4694 36.7549Z" fill="white"/>
<path d="M74.7285 36.7549L77.0157 31.0588C77.0859 30.8875 77.2151 30.8003 77.4034 30.7977H77.6645C77.8554 30.7977 77.9847 30.8849 78.0522 31.0588L80.3404 36.7549C80.3479 36.7719 80.3525 36.7849 80.3525 36.7925C80.3525 36.8244 80.3244 36.8391 80.2683 36.8391H79.6495C79.5924 36.8391 79.5493 36.8111 79.5183 36.7549L78.9155 35.285H76.1518L75.5496 36.7549C75.5216 36.8111 75.4775 36.8391 75.4194 36.8391H74.7997C74.7461 36.8391 74.719 36.8241 74.719 36.7925C74.7161 36.7849 74.719 36.7719 74.7285 36.7549ZM76.3708 34.6822H78.7011L77.5336 31.7918L76.3708 34.6822Z" fill="white"/>
<path d="M91.2288 35.2758C91.2288 35.2252 91.2588 35.2011 91.3169 35.2011H91.8609C91.9115 35.2011 91.9461 35.2292 91.9667 35.2853C92.2072 36.0043 92.8224 36.3639 93.811 36.3639C94.3276 36.3639 94.7238 36.2713 94.9973 36.0878C95.2718 35.9034 95.4082 35.676 95.4082 35.4034C95.4082 35.1309 95.3221 34.911 95.1488 34.7435C94.9764 34.5768 94.7059 34.441 94.3381 34.3372L92.826 33.9074C91.8485 33.6264 91.36 33.0947 91.36 32.3101C91.36 31.8281 91.5649 31.4338 91.9768 31.1287C92.3877 30.8245 92.9392 30.6718 93.6302 30.6718C94.3211 30.6718 94.8792 30.8196 95.3051 31.1166C95.73 31.4123 95.998 31.8196 96.1073 32.3366C96.1184 32.4067 96.0887 32.4413 96.0182 32.4413H95.4751C95.4245 32.4413 95.389 32.4113 95.3704 32.3532C95.1279 31.6342 94.5541 31.2746 93.6468 31.2746C93.1693 31.2746 92.7976 31.3663 92.5326 31.5497C92.2666 31.7341 92.1348 31.9645 92.1348 32.2406C92.1348 32.5167 92.2209 32.736 92.3932 32.896C92.5665 33.0562 92.8387 33.191 93.2134 33.3003L94.7255 33.7347C95.6974 34.0098 96.183 34.5418 96.183 35.331C96.183 35.8196 95.9715 36.2148 95.5492 36.5173C95.1259 36.8189 94.5466 36.9703 93.8107 36.9703C93.0747 36.9703 92.4885 36.8225 92.0506 36.5275C91.8316 36.3812 91.6396 36.1952 91.4748 35.9694C91.311 35.7429 91.2288 35.5118 91.2288 35.2758Z" fill="white"/>
<path d="M107.83 36.7549V30.8865C107.83 30.8304 107.859 30.8003 107.915 30.7974H110.418C111.136 30.7974 111.691 30.9707 112.08 31.315C112.468 31.6613 112.663 32.1642 112.663 32.8261C112.663 33.488 112.468 33.9909 112.08 34.3362C111.691 34.6818 111.136 34.8538 110.418 34.8538H108.606V36.7543C108.606 36.8104 108.578 36.8385 108.521 36.8385H107.915C107.859 36.8385 107.83 36.8104 107.83 36.7543V36.7549ZM108.606 34.2523H110.418C110.873 34.2523 111.231 34.1345 111.492 33.8985C111.753 33.6626 111.884 33.3059 111.884 32.8284C111.884 32.3509 111.753 31.9942 111.492 31.7582C111.231 31.5223 110.873 31.4044 110.418 31.4044H108.606V34.2523Z" fill="white"/>
<path d="M123.461 36.7549L125.748 31.0588C125.818 30.8875 125.947 30.8003 126.136 30.7977H126.397C126.588 30.7977 126.717 30.8849 126.785 31.0588L129.073 36.7549C129.08 36.7719 129.085 36.7849 129.085 36.7925C129.085 36.8244 129.057 36.8391 129.001 36.8391H128.382C128.325 36.8391 128.282 36.8111 128.251 36.7549L127.648 35.285H124.884L124.282 36.7549C124.254 36.8111 124.21 36.8391 124.152 36.8391H123.532C123.478 36.8391 123.451 36.8241 123.451 36.7925C123.448 36.7849 123.451 36.7719 123.461 36.7549ZM125.103 34.6822H127.433L126.266 31.7918L125.103 34.6822Z" fill="white"/>
<path d="M140.555 36.7549V30.8865C140.555 30.8304 140.583 30.8003 140.639 30.7974H143.058C143.766 30.7974 144.316 30.9602 144.71 31.286C145.102 31.6117 145.299 32.0686 145.299 32.6557C145.299 33.0771 145.148 33.4403 144.846 33.7464C144.544 34.0526 144.121 34.2491 143.576 34.3362C143.736 34.3754 143.88 34.4459 144.009 34.5467C144.139 34.6476 144.232 34.7357 144.29 34.8098C144.347 34.8845 144.425 35.0007 144.524 35.157L145.56 36.7337C145.574 36.7562 145.581 36.7787 145.581 36.8029C145.581 36.8264 145.55 36.8385 145.489 36.8385H144.781C144.736 36.8385 144.694 36.8104 144.655 36.7543L143.618 35.157C143.343 34.7256 142.94 34.5092 142.408 34.5092H141.33V36.7543C141.33 36.8104 141.302 36.8385 141.246 36.8385H140.639C140.583 36.8385 140.555 36.8104 140.555 36.7543V36.7549ZM141.33 33.907H143.058C143.501 33.907 143.857 33.7993 144.124 33.5829C144.391 33.3666 144.525 33.0568 144.525 32.6531C144.525 32.2494 144.39 31.9416 144.122 31.7262C143.853 31.5118 143.498 31.4041 143.058 31.4041H141.33V33.907Z" fill="white"/>
<path d="M157.059 36.7549V30.8865C157.059 30.8304 157.088 30.8003 157.144 30.7974H157.75C157.807 30.7974 157.835 30.8264 157.835 30.8865V33.5193H158.484C159 33.5193 159.402 33.3029 159.688 32.8705L160.986 30.8865C161.025 30.8304 161.068 30.8003 161.113 30.7974H161.821C161.913 30.7974 161.937 30.833 161.892 30.9031L160.553 32.9544C160.218 33.4655 159.873 33.754 159.516 33.8186C159.929 33.8832 160.304 34.1707 160.641 34.6818L161.977 36.734C161.991 36.7566 161.998 36.7791 162 36.8032C162.001 36.8267 161.971 36.8388 161.909 36.8388H161.201C161.156 36.8388 161.113 36.8107 161.07 36.7546L159.777 34.766C159.491 34.3336 159.087 34.1192 158.569 34.1218H157.835V36.7546C157.835 36.8107 157.807 36.8388 157.75 36.8388H157.144C157.088 36.8388 157.059 36.8107 157.059 36.7546V36.7549Z" fill="white"/>
</svg>
