<svg width="29" height="14" viewBox="0 0 29 14" fill="none" xmlns="http://www.w3.org/2000/svg">
<path d="M25.024 8.14703H24.1753C16.6889 8.14703 9.20094 8.14703 1.71456 8.14703C1.4766 8.14703 1.23546 8.16544 1.00067 8.13532C0.389891 8.06003 0.0186652 7.66849 0.00121446 7.03935C-0.0162363 6.40686 0.34547 5.99525 0.945142 5.88983C1.22911 5.83964 1.52578 5.85972 1.81609 5.85972C9.27709 5.85972 16.7365 5.85972 24.1975 5.85972C24.4767 5.85972 24.7559 5.85972 25.0351 5.85972C25.0827 5.77605 25.1319 5.69406 25.1795 5.6104C24.1912 4.62152 23.2028 3.63431 22.216 2.64207C22.005 2.43125 21.7925 2.22042 21.6021 1.98951C21.1531 1.44571 21.142 0.773065 21.5973 0.346389C22.1145 -0.138851 22.6698 -0.105386 23.1568 0.38822C23.977 1.21815 24.7686 2.07819 25.5729 2.92653C26.5454 3.95222 27.5242 4.97122 28.4888 6.00361C29.1503 6.71139 29.1741 7.26189 28.53 7.94792C26.7818 9.81191 25.0209 11.6625 23.2536 13.5064C22.6602 14.1255 22.0701 14.154 21.5815 13.6403C21.1135 13.1467 21.1484 12.4841 21.7227 11.8784C22.8427 10.6971 23.9802 9.53582 25.1113 8.36456C25.0811 8.29261 25.051 8.21898 25.0209 8.14703H25.024Z" fill="#23458B"/>
</svg>
